<?xml version="1.0" encoding="UTF-8" standalone="no"?>
<!DOCTYPE svg PUBLIC "-//W3C//DTD SVG 1.1//EN" "http://www.w3.org/Graphics/SVG/1.1/DTD/svg11.dtd">
<svg width="100%" height="100%" viewBox="0 0 750 750" version="1.1" xmlns="http://www.w3.org/2000/svg" xmlns:xlink="http://www.w3.org/1999/xlink" xml:space="preserve" xmlns:serif="http://www.serif.com/" style="fill-rule:evenodd;clip-rule:evenodd;stroke-linejoin:round;stroke-miterlimit:2;">
    <g transform="matrix(1,0,0,1,-737.251,-981.501)">
        <g transform="matrix(1,0,0,1,-1.12557,0)">
            <path d="M1488.01,1168.91C1488.01,1065.47 1404.03,981.501 1300.6,981.501L925.785,981.501C822.351,981.501 738.377,1065.47 738.377,1168.91L738.377,1543.73C738.377,1647.16 822.351,1731.13 925.785,1731.13L1300.6,1731.13C1404.03,1731.13 1488.01,1647.16 1488.01,1543.73L1488.01,1168.91Z" style="fill:rgb(0,67,100);"/>
        </g>
        <g transform="matrix(955.394,0,0,955.394,885.827,1507.79)">
            <path d="M0.441,-0.192C0.441,-0.167 0.437,-0.141 0.428,-0.116C0.419,-0.09 0.406,-0.067 0.389,-0.048C0.373,-0.029 0.353,-0.014 0.331,-0.004C0.309,0.007 0.286,0.012 0.262,0.012C0.242,0.012 0.224,0.009 0.206,0.003C0.189,-0.003 0.172,-0.013 0.157,-0.026L0.157,0.078C0.157,0.093 0.152,0.108 0.141,0.121C0.13,0.135 0.114,0.142 0.093,0.142C0.081,0.142 0.071,0.138 0.065,0.131C0.058,0.124 0.055,0.116 0.055,0.107C0.055,0.099 0.057,0.091 0.062,0.084C0.066,0.077 0.073,0.072 0.083,0.07L0.083,-0.31C0.073,-0.312 0.066,-0.317 0.062,-0.324C0.057,-0.331 0.055,-0.338 0.055,-0.345C0.055,-0.354 0.058,-0.363 0.065,-0.371C0.071,-0.379 0.081,-0.383 0.093,-0.383C0.107,-0.383 0.118,-0.38 0.128,-0.373C0.138,-0.366 0.145,-0.358 0.15,-0.349C0.183,-0.38 0.22,-0.395 0.262,-0.395C0.289,-0.395 0.314,-0.389 0.336,-0.377C0.358,-0.365 0.377,-0.349 0.393,-0.331C0.408,-0.312 0.42,-0.29 0.429,-0.266C0.437,-0.241 0.441,-0.217 0.441,-0.192ZM0.262,-0.062C0.276,-0.062 0.29,-0.066 0.303,-0.073C0.316,-0.08 0.327,-0.089 0.337,-0.101C0.346,-0.113 0.354,-0.127 0.359,-0.142C0.364,-0.158 0.367,-0.175 0.367,-0.192C0.367,-0.209 0.364,-0.226 0.359,-0.242C0.354,-0.257 0.346,-0.271 0.337,-0.282C0.327,-0.294 0.316,-0.304 0.303,-0.311C0.29,-0.318 0.276,-0.321 0.262,-0.321C0.248,-0.321 0.234,-0.318 0.221,-0.311C0.208,-0.304 0.197,-0.294 0.188,-0.282C0.179,-0.271 0.171,-0.257 0.165,-0.242C0.16,-0.226 0.157,-0.209 0.157,-0.192C0.157,-0.175 0.16,-0.158 0.165,-0.142C0.171,-0.127 0.179,-0.113 0.188,-0.101C0.197,-0.089 0.208,-0.08 0.221,-0.073C0.234,-0.066 0.248,-0.062 0.262,-0.062Z" style="fill:rgb(249,237,221);fill-rule:nonzero;"/>
        </g>
    </g>
</svg>
